<svg xmlns="http://www.w3.org/2000/svg" viewBox="0 0 1000 1000" fill="none">
  <path fill="#0891B2" d="M0 0h1000v1000H0z"/>
  <path fill="#FFFFFF" d="M500 83.333c-16.667 0-33.333 6.25-45.833 18.75-75 62.5-125 118.75-156.25 175-31.25 56.25-43.75 106.25-43.75 156.25 0 83.333 31.25 162.5 87.5 225 50 56.25 118.75 87.5 193.75 87.5 75 0 143.75-31.25 193.75-87.5 56.25-62.5 87.5-141.667 87.5-225 0-50-12.5-100-43.75-156.25-31.25-56.25-81.25-112.5-156.25-175-12.5-12.5-29.167-18.75-45.833-18.75h-70.834zm35.417 583.334c-25 0-45.834-20.834-45.834-45.834 0-25 20.834-45.833 45.834-45.833 25 0 45.833 20.833 45.833 45.833 0 25-20.833 45.834-45.833 45.834zm-166.667-125c-12.5-18.75-18.75-41.667-18.75-62.5 0-31.25 6.25-62.5 25-100 18.75-37.5 50-75 93.75-118.75 6.25-6.25 12.5-6.25 18.75-6.25 6.25 0 12.5 0 18.75 6.25 43.75 43.75 75 81.25 93.75 118.75 18.75 37.5 25 68.75 25 100 0 20.833-6.25 43.75-18.75 62.5-12.5 18.75-31.25 31.25-50 31.25-12.5 0-25-6.25-37.5-12.5-12.5-6.25-25-12.5-37.5-12.5-12.5 0-25 6.25-37.5 12.5-12.5 6.25-25 12.5-37.5 12.5-18.75 0-37.5-12.5-50-31.25h-6.25z"/>
  <path fill="#FFFFFF" d="M500 916.667c-229.167 0-416.667-187.5-416.667-416.667 0-229.167 187.5-416.667 416.667-416.667 229.167 0 416.667 187.5 416.667 416.667 0 229.167-187.5 416.667-416.667 416.667zm0-750c-183.333 0-333.333 150-333.333 333.333 0 183.333 150 333.334 333.333 333.334 183.333 0 333.333-150 333.333-333.334 0-183.333-150-333.333-333.333-333.333z"/>
  <path fill="#FFFFFF" d="M625 291.667l-25 25-25-25 25-25 25 25zm-125 0l-25 25-25-25 25-25 25 25z"/>
</svg>
